<?xml version="1.0" encoding="utf-8"?>
<!-- Generator: Adobe Illustrator 24.0.1, SVG Export Plug-In . SVG Version: 6.00 Build 0)  -->
<svg version="1.1" id="Capa_1" xmlns="http://www.w3.org/2000/svg" xmlns:xlink="http://www.w3.org/1999/xlink" x="0px" y="0px"
	 viewBox="0 0 256 256" style="enable-background:new 0 0 256 256;" xml:space="preserve">
<style type="text/css">
	.st0{fill:#CCCCCC;}
	.st1{fill:#E2E2E2;}
	.st2{fill:#660099;}
</style>
<ellipse class="st0" cx="128" cy="128" rx="114" ry="113.5"/>
<ellipse class="st1" cx="128" cy="128" rx="104.5" ry="104"/>
<g>
	<path class="st2" d="M183.5,72.4c-8.8-8.8-19.2-15.1-30.2-18.8v23.7c5.3,2.7,10.4,6.1,14.8,10.5c22.1,22.1,22.1,58.1,0,80.2
		c-22.1,22.1-58,22.1-80.2,0c-22.1-22.1-22.1-58.1,0-80.2c0.1-0.1,0.2-0.2,0.3-0.3h0l13.1,13.1l-0.1-41.5L59.7,59l13,13
		c-0.1,0.1-0.2,0.3-0.3,0.3c-30.6,30.6-30.6,80.3,0,111c30.7,30.7,80.4,30.7,111,0C214.1,152.8,214.2,103.1,183.5,72.4z"/>
</g>
</svg>
